<svg xmlns="http://www.w3.org/2000/svg" viewBox="0 0 44 55" x="0px" y="0px"><title>Монтажная область 5</title><g><path d="M8.916,19.00268a.44511.44511,0,0,0,.31689-.13818l.00195-.002a.20591.20591,0,0,1,.08692-.04,22.31479,22.31479,0,0,0,3.48681-1.04541,2.709,2.709,0,0,0,1.08985-.58593.61237.61237,0,0,0,.11963-.21045l.02441-.0459a.51947.51947,0,0,0,.002-.36865,6.89715,6.89715,0,0,0-.66259-1.0918c-.80518-1.05273-1.5503-2.09082-2.21729-3.09082.13672.05713.28857.12256.45361.19531,2.4126,1.27783,4.04053,2.0918,4.96338,2.48291a.90391.90391,0,0,0,.24756.10108.61573.61573,0,0,0,.67041-.23047.43494.43494,0,0,0,.09522-.25733l.08789-1.939.5791-4.22754c1.67871,3.292,2.80127,5.356,3.33887,6.13769a.42418.42418,0,0,0,.38867.188.44568.44568,0,0,0,.41015-.188c.5376-.78173,1.66016-2.8457,3.33887-6.13769l.57813,4.21631.08886,1.94873a.43324.43324,0,0,0,.09424.25732.62819.62819,0,0,0,.668.23291.86285.86285,0,0,0,.23779-.09521c.936-.39795,2.564-1.21192,4.96875-2.48584.16895-.0752.32325-.1416.46143-.19922-.667,1-1.41162,2.0376-2.21387,3.08643l-.021.02587a6.80074,6.80074,0,0,0-.646,1.07373.51147.51147,0,0,0,.00049.35889c.00781.02344.019.0459.02148.03565a.63967.63967,0,0,0,.12744.23,2.71409,2.71409,0,0,0,1.08594.58252,22.25069,22.25069,0,0,0,3.47608,1.043.22613.22613,0,0,1,.10107.04493.44511.44511,0,0,0,.31689.13818h.00684a.44958.44958,0,0,0,.32324-.76221,1.09742,1.09742,0,0,0-.51855-.29248l-.03467-.00732a21.12714,21.12714,0,0,1-3.3667-1.01172,4.48036,4.48036,0,0,1-.59082-.24463c.0918-.15332.24072-.38379.43457-.67187,1.00781-1.313,1.90723-2.58252,2.6626-3.75928a.70359.70359,0,0,0,.09765-.14844.69475.69475,0,0,0,.08106-.30859.58228.58228,0,0,0-.23193-.45166l-.0127-.00928a.5488.5488,0,0,0-.38135-.11768,6.06049,6.06049,0,0,0-1.5542.54493l-.02929.01464c-2.1709,1.15137-3.7461,1.9458-4.68653,2.3628l-.06787-1.478-.74853-5.4707a.34689.34689,0,0,0-.01221-.05225.44293.44293,0,0,0-.603-.33154.596.596,0,0,0-.22949.14355,3.07531,3.07531,0,0,0-.44141.66944c-1.478,2.9082-2.54687,4.91552-3.18066,5.97314-.63379-1.05762-1.70313-3.06543-3.187-5.98389a3.01708,3.01708,0,0,0-.4336-.65722.59956.59956,0,0,0-.23632-.14649.43792.43792,0,0,0-.59571.32715.45817.45817,0,0,0-.0166.07031l-.74316,5.43018-.0708,1.50635c-.94043-.417-2.51563-1.21143-4.68653-2.3628l-.02929-.01464a6.0498,6.0498,0,0,0-1.55518-.54493.55843.55843,0,0,0-.38232.11914l-.01612.01221a.57775.57775,0,0,0-.22656.44727.69674.69674,0,0,0,.08057.3081.61284.61284,0,0,0,.08789.13477c.76562,1.19092,1.665,2.46045,2.66845,3.76709.19776.29346.34717.52441.439.67822a4.57038,4.57038,0,0,1-.59766.248,21.14007,21.14007,0,0,1-3.36328,1.00879l-.03125.00683a1.09624,1.09624,0,0,0-.51758.29151.448.448,0,0,0,.00977.63574A.42505.42505,0,0,0,8.916,19.00268Z"/><path d="M17.35059,35.07739q.14134.00513.30468.01318l1.18067.0542c.231.01123.49853.02393.80224.03662.11621.00537.29541.00781.54053.00781.05371,0,.11035,0,.16406-.00244.18409,0,.35254-.00244.51368-.00781a.45132.45132,0,1,0-.0376-.90186c-.14649.00782-.30615.01075-.47852.01075h-.16455c-.23047,0-.39648-.00293-.49707-.00537l-.61963-.02784c-.21826-.00976-.4082-.01806-.57129-.02685-.3003-.01563-.50879-.02637-.62158-.03125l-.48144-.01856c-.022-.001-.05665-.00146-.104-.00244l-.21924-.00537c-.167-.00488-.39453-.01025-.688-.01562l-.49024-.00635c-.2583-.00293-.41211-.00488-.46973-.00635-.10693-.00293-.39062-.01074-.85937-.02881-.36035-.00537-.56787-.01074-.64893-.01318a1.67244,1.67244,0,0,1-.313-.03125.405.405,0,0,0-.11915-.01563.45037.45037,0,0,0-.43359.335.44894.44894,0,0,0,.31641.54932,2.20819,2.20819,0,0,0,.51709.062c.04492.00244.26513.00781.66211.01563.46.01562.74707.02343.86132.02588.08594.00244.40967.00781.96289.01562.56983.01025.898.01807.99073.021Z"/><path d="M21.48682,36.32153l-.89746-.07862c-.13624-.01074-.28077-.01806-.43213-.02294q-.15307-.00734-.59961-.00733l-.16309.00049c-.08691,0-.31982.00293-.70019.00928l-.23536.001c-.18212-.001-.36132-.00586-.55127-.01465a8.9489,8.9489,0,0,1-1.0166-.11181.45027.45027,0,0,0-.1333.89062,9.96234,9.96234,0,0,0,1.127.12159q.28052.01317.5708.01464l.2539-.001c.375-.00635.60205-.00928.70166-.00928h.148c.28076,0,.46631.002.563.00635.1416.00439.27441.01172.39795.021l.88672.07764.041.002a.45033.45033,0,0,0,.03907-.89892Z"/><path d="M39.82568,26.56225l-.0332-.01123a1.20024,1.20024,0,0,0-.25732-.04639q-.115-.00658-.3208-.01465c-.05616-.002-.12452-.00341-.20752-.0039l-.84864.00586c-.28076.00293-.45361.00439-.52539.00439l-.24853-.00049c-.30176-.00293-.47168-.00439-.51465-.00439l-1.12744.01807q-.36695.00512-.60352.01025a8.00471,8.00471,0,0,0,.4585-1.15771.45129.45129,0,0,0-.30225-.56055.4606.4606,0,0,0-.56006.30176,11.92983,11.92983,0,0,1-2.50781,4.10205l-.00293.00244a2.04618,2.04618,0,0,1-.439.30957l-.00147.00049a14.05515,14.05515,0,0,0-2.23291,1.05664,20.17294,20.17294,0,0,1-1.875,1.4707.456.456,0,0,0-.125.0752c-.228.19336-.69726.17236-1.35889-.05664a2.19712,2.19712,0,0,1-.48779-.292L25.69531,31.76v.001a1.51366,1.51366,0,0,1-.06982-.50732.43724.43724,0,0,0-.01172-.07862c.104-.0664.208-.1372.31055-.2124,2.31445-1.52978,3.49023-2.79394,3.59326-3.85205a.61133.61133,0,0,0-.11524-.49268,1.27873,1.27873,0,0,0-.43505-.34619l.00292-.00293a7.32634,7.32634,0,0,1,.57178-.53125q.10914-.10326.208-.21386a.45036.45036,0,0,0-.03516-.63623.46479.46479,0,0,0-.63574.03564c-.0498.05566-.10205.10938-.15381.15772a8.19915,8.19915,0,0,0-.64209.606l-.00634.00684a1.6751,1.6751,0,0,0-.18165.23047c-.43212-.13575-.9873-.27881-1.65283-.4253q-.10034-.14062-.29345-.3916c-.02247-.02929-.05909-.082-.11084-.15722a2.68845,2.68845,0,0,1-.18653-.31983.45016.45016,0,1,0-.80615.40088,3.52561,3.52561,0,0,0,.24951.42676c.06055.08887.10645.15381.13916.19726l.00635.0083a.69531.69531,0,0,0-.05957.07178.78206.78206,0,0,0-.10468.20978l-.0047.00653.00116.00061-.00268.00537-.00189-.00061-.17139.51416.03046-.03045a11.53537,11.53537,0,0,0-.27753,1.23846.45041.45041,0,1,0,.88867.14746,9.91116,9.91116,0,0,1,.34912-1.48291,17.85916,17.85916,0,0,1,1.94531.50732,2.97764,2.97764,0,0,1,.57715.24512c-.14257.7666-1.21338,1.81445-3.20215,3.1294-.96875.71191-1.74511.84912-2.375.42382a3.7238,3.7238,0,0,1-.56591-1.01367,2.52125,2.52125,0,0,0,.05127-.293A.44254.44254,0,0,0,22.52,29.2937l-.03223-3.46143c-.00488-.34814-.01758-.6875-.03759-.99268.11084-1.814.46-2.9497,1.03662-3.37646a8.65865,8.65865,0,0,1,1.50634-.09815l10.82178-.02246a14.40135,14.40135,0,0,1,3.74414.29541.45064.45064,0,0,0,.50488-.66162.44391.44391,0,0,0-.27343-.20849,15.467,15.467,0,0,0-3.9917-.32569l-10.82031.02246a7.27643,7.27643,0,0,0-1.85938.17188.595.595,0,0,0-.16064.09863A2.96384,2.96384,0,0,0,22,22.20532a2.95261,2.95261,0,0,0-.95068-1.46387.61043.61043,0,0,0-.16944-.105,7.29576,7.29576,0,0,0-1.86767-.17188l-10.811-.02246a15.432,15.432,0,0,0-3.99121.3252.45019.45019,0,1,0,.23145.87012,14.37472,14.37472,0,0,1,3.751-.29493l10.8125.02246a8.84027,8.84027,0,0,1,1.5044.09522c.5791.42432.9292,1.56152,1.041,3.36377-.0205.3208-.0332.66016-.03808,1.01074L21.48,29.28979a.47109.47109,0,0,0,.00244.05664,2.47829,2.47829,0,0,0,.05078.28906,3.7238,3.7238,0,0,1-.56591,1.01367c-.63086.4253-1.40723.2876-2.39356-.437-1.9707-1.30224-3.041-2.34961-3.18359-3.11621a2.97313,2.97313,0,0,1,.57763-.24512,17.81534,17.81534,0,0,1,1.94483-.50732,9.84035,9.84035,0,0,1,.34912,1.48291.45041.45041,0,0,0,.88867-.14746,11.58057,11.58057,0,0,0-.2771-1.2381l.03.03009-.16748-.50244-.00391-.01172-.002.00073-.00275-.00543.00135-.00067-.00531-.00738a.81247.81247,0,0,0-.10358-.20844.78033.78033,0,0,0-.06006-.07275l.00879-.01123q.04541-.06006.13769-.19434a3.60552,3.60552,0,0,0,.24854-.42627.45016.45016,0,1,0-.80615-.40088,2.64264,2.64264,0,0,1-.187.31983c-.05127.07568-.08838.12793-.10987.15673-.13476.17481-.23584.31006-.292.39209-.6665.14649-1.22217.28955-1.65478.4253a1.6751,1.6751,0,0,0-.18165-.23047l-.00537-.00537a8.03961,8.03961,0,0,0-.64062-.605c-.0542-.05078-.10645-.1045-.15625-.16016a.4623.4623,0,0,0-.63574-.03564.4498.4498,0,0,0-.03516.63574c.06592.07422.13525.14551.21924.22461a7.10607,7.10607,0,0,1,.56055.521l.00292.00293a1.27673,1.27673,0,0,0-.43457.34571.60316.60316,0,0,0-.11767.481c.105,1.07032,1.28076,2.33448,3.59033,3.86035.106.07813.21143.14991.31543.21631a.42563.42563,0,0,0-.01172.07813,1.94146,1.94146,0,0,1-.06055.49316l-.01806.02539a2.22927,2.22927,0,0,1-.48779.292c-.66358.23-1.13038.25048-1.35938.05615a.45.45,0,0,0-.11914-.07227,20.1353,20.1353,0,0,1-1.9043-1.4917,14.613,14.613,0,0,0-2.209-1.03808h-.001a2.05621,2.05621,0,0,1-.43945-.31006l-.00244-.002a11.93341,11.93341,0,0,1-2.5083-4.10206.45812.45812,0,0,0-.56055-.30224.45171.45171,0,0,0-.30176.561,8.022,8.022,0,0,0,.4585,1.15723c-.15723-.00342-.3584-.00684-.60205-.01025l-1.13282-.01807c-.03906,0-.209.00146-.51074.00439l-.25586.00049c-.06445,0-.2373-.00146-.5205-.00439l-.84766-.00586c-.08154.00049-.1499.00195-.20654.0039-.13672.00538-.24366.01026-.32813.01563a1.15556,1.15556,0,0,0-.24951.04541l-.0332.01123a.45021.45021,0,0,0-.26758.55127.44159.44159,0,0,0,.564.29883.219.219,0,0,1,.04981-.00879c.0708-.00391.17138-.00879.30224-.01367.04541-.002.10205-.00293.20166-.00293l.80762.00537c.28369.00293.46.00439.53516.00439l.25683-.00049c.30176-.00292.46827-.00439.50782-.00439l1.11035.01807c.311.00439.55029.00879.72119.01269l.11621.00049a.42646.42646,0,0,0,.22949-.06787,17.29064,17.29064,0,0,0,1.80176,2.46045l.02588.02734a2.95808,2.95808,0,0,0,.68555.48487l.03222.01513a15.57673,15.57673,0,0,1,2.03565.937l.00244.002A20.917,20.917,0,0,0,15.917,32.84789a2.31534,2.31534,0,0,0,2.21924.05469.42909.42909,0,0,0,.05126-.02246,2.62275,2.62275,0,0,0,.814-.54785l.04053-.05566.02-.0293.10352-.15039H19.1377a2.02873,2.02873,0,0,0,.10693-.48291,2.31953,2.31953,0,0,0,2.30029-.2666.45292.45292,0,0,0,.0918-.08936A6.0303,6.0303,0,0,0,22,30.73217a6.0108,6.0108,0,0,0,.36377.52637.45912.45912,0,0,0,.09082.08887,2.31868,2.31868,0,0,0,2.30078.2666,2.02873,2.02873,0,0,0,.10693.48291H24.833l.1123.16113.00928.01367.04541.062a2.626,2.626,0,0,0,.813.54688.43962.43962,0,0,0,.05273.02246,3.783,3.783,0,0,0,1.23242.24658,1.57709,1.57709,0,0,0,.98487-.30176A20.917,20.917,0,0,0,30.10742,31.282l.00244-.002a15.74507,15.74507,0,0,1,2.04151-.93994l.03125-.01465a2.95585,2.95585,0,0,0,.68554-.4873l.02442-.02637a17.27448,17.27448,0,0,0,1.79883-2.45752.48882.48882,0,0,0,.25879.06885l.09082-.00049c.1665-.0039.40576-.0083.71972-.01269l1.11524-.01807q.0476,0,.49951.00439l.26416.00049q.10254,0,.52832-.00439l.8374-.00537c.06983,0,.12647.001.17285.00293.12989.00488.23047.00976.30127.01367a.28417.28417,0,0,1,.0669.01367.45343.45343,0,0,0,.54687-.3042.44995.44995,0,0,0-.26758-.55078Z"/><path d="M30.52686,34.053a.41162.41162,0,0,0-.1167.01465,1.70353,1.70353,0,0,1-.33985.03223c-.05664.00244-.26416.00781-.63282.01318-.46044.01807-.74413.02588-.85937.02881q-.074.0022-.46191.00635l-.49365.00635c-.28955.00537-.51709.01074-.68457.01562l-.21875.00537c-.04737.001-.082.00147-.10254.00244l-.48535.01856c-.11035.00488-.31886.01562-.61914.03125-.16309.00879-.353.01709-.57129.02685l-.6167.02784c-.10352.00244-.26953.00537-.5.00537h-.16455c-.17237,0-.332-.00293-.498-.01075a.45109.45109,0,0,0-.01709.90186c.15625.00537.3208.00781.49512.00781h.01221c.05908.00244.11572.00244.16943.00244.24512,0,.42432-.00244.54-.00781.3042-.01269.57178-.02539.80273-.03662l1.18067-.0542c.10986-.00537.21191-.01025.30908-.01318.08887-.00293.417-.01075.98633-.021.55371-.00781.87744-.01318.9624-.01562.11523-.00245.40234-.01026.86035-.02588.39893-.00782.61914-.01319.6709-.01563a2.18147,2.18147,0,0,0,.50781-.06152.44846.44846,0,0,0,.31885-.54932A.45025.45025,0,0,0,30.52686,34.053Z"/><path d="M27.1084,36.09692a8.77631,8.77631,0,0,1-1.03028.11181c-.17578.00879-.355.01368-.53662.01465l-.23584-.001c-.38037-.00635-.61328-.00928-.71826-.00928l-.145-.00049q-.44678,0-.59814.00733c-.15283.00488-.29737.0122-.439.02343l-.89209.07813a.45033.45033,0,0,0,.03907.89892l.92627-.07959c.125-.00927.25781-.0166.40527-.02148q.13623-.00586.55713-.00586h.16748c.08008,0,.30713.00293.68408.00928l.25244.001c.19287-.001.3833-.00586.57031-.01464a9.96234,9.96234,0,0,0,1.127-.12159.45031.45031,0,1,0-.13379-.89062Z"/></g><text x="0" y="59" fill="#000000" font-size="5px" font-weight="bold" font-family="'Helvetica Neue', Helvetica, Arial-Unicode, Arial, Sans-serif">Created by Doodle Icons</text><text x="0" y="64" fill="#000000" font-size="5px" font-weight="bold" font-family="'Helvetica Neue', Helvetica, Arial-Unicode, Arial, Sans-serif">from the Noun Project</text></svg>